<svg xmlns="http://www.w3.org/2000/svg" viewBox="0 0 800 520" width="800" height="520" style="background:#0b1329;font-family:'Segoe UI',Roboto,Helvetica,Arial,sans-serif;">
  <defs>
    <linearGradient id="bgGrad" x1="0%" y1="0%" x2="100%" y2="100%">
      <stop offset="0%" stop-color="#0b1329" />
      <stop offset="50%" stop-color="#111d40" />
      <stop offset="100%" stop-color="#070c1b" />
    </linearGradient>
    <linearGradient id="goldGrad" x1="0%" y1="0%" x2="100%" y2="100%">
      <stop offset="0%" stop-color="#F59E0B" />
      <stop offset="50%" stop-color="#D97706" />
      <stop offset="100%" stop-color="#B45309" />
    </linearGradient>
    <linearGradient id="blueGrad" x1="0%" y1="0%" x2="100%" y2="100%">
      <stop offset="0%" stop-color="#0084FF" />
      <stop offset="100%" stop-color="#0066CC" />
    </linearGradient>
    <filter id="dropGlow" x="-20%" y="-20%" width="140%" height="140%">
      <feDropShadow dx="0" dy="8" stdDeviation="12" flood-color="#000000" flood-opacity="0.6"/>
    </filter>
  </defs>

  <rect width="800" height="520" fill="url(#bgGrad)" />
  
  <!-- Decorative Background Grid Lines -->
  <g opacity="0.08" stroke="#ffffff" stroke-width="1">
    <line x1="0" y1="80" x2="800" y2="80" />
    <line x1="0" y1="180" x2="800" y2="180" />
    <line x1="0" y1="280" x2="800" y2="280" />
    <line x1="0" y1="380" x2="800" y2="380" />
    <line x1="0" y1="480" x2="800" y2="480" />
    <line x1="160" y1="0" x2="160" y2="520" />
    <line x1="320" y1="0" x2="320" y2="520" />
    <line x1="480" y1="0" x2="480" y2="520" />
    <line x1="640" y1="0" x2="640" y2="520" />
  </g>

  <!-- Top Header Banner -->
  <rect x="40" y="24" width="720" height="60" rx="16" fill="#142247" stroke="#253b75" stroke-width="1.5" />
  <circle cx="75" cy="54" r="18" fill="url(#goldGrad)" />
  <text x="75" y="60" fill="#ffffff" font-size="14" font-weight="900" text-anchor="middle">CEO</text>
  <text x="108" y="46" fill="#fbbf24" font-size="15" font-weight="800" letter-spacing="0.5">HƯỚNG DẪN 6: ĐÓNG HỘI PHÍ NIÊN KIM VIETQR</text>
  <text x="108" y="66" fill="#94a3b8" font-size="12">Thanh toán tự động 24/7 qua VietQR MB Bank, gạch nợ tức thì</text>

  <!-- Content Slot -->
  
  <g transform="translate(60, 115)">
    <!-- VietQR Invoice Card Mockup -->
    <rect x="0" y="0" width="320" height="320" rx="24" fill="#ffffff" stroke="#e2e8f0" filter="url(#dropGlow)" />
    
    <!-- Bank & VietQR Header -->
    <rect x="0" y="0" width="320" height="48" rx="24" fill="#003B95" />
    <text x="20" y="30" fill="#ffffff" font-size="13" font-weight="800">HÓA ĐƠN HỘI PHÍ NIÊN KIM</text>
    <text x="300" y="30" fill="#fef08a" font-size="11" font-weight="700" text-anchor="end">CEO 1983</text>

    <text x="20" y="75" fill="#64748b" font-size="10.5">Số tiền thanh toán:</text>
    <text x="20" y="98" fill="#003B95" font-size="20" font-weight="900">20.000.000 VNĐ</text>
    
    <text x="20" y="118" fill="#64748b" font-size="10.5">Nội dung chuyển khoản:</text>
    <rect x="20" y="125" width="280" height="28" rx="8" fill="#f8fafc" stroke="#cbd5e1" />
    <text x="30" y="143" fill="#0f172a" font-size="10.5" font-weight="700">M1983-007 HOI PHI 2026</text>

    <!-- VietQR Code Image Placeholder -->
    <rect x="90" y="165" width="140" height="105" rx="12" fill="#eff6ff" stroke="#93c5fd" />
    <rect x="105" y="175" width="30" height="30" fill="#003B95" />
    <rect x="185" y="175" width="30" height="30" fill="#003B95" />
    <rect x="105" y="225" width="30" height="30" fill="#003B95" />
    <rect x="150" y="195" width="20" height="20" fill="#2563eb" />
    <text x="160" y="255" fill="#003B95" font-size="9" font-weight="800" text-anchor="middle">MB BANK - 1983000000</text>

    <!-- Pay Button -->
    <rect x="20" y="280" width="280" height="30" rx="10" fill="#16a34a" />
    <text x="160" y="300" fill="#ffffff" font-size="11" font-weight="700" text-anchor="middle">✓ ĐÃ XÁC NHẬN GẠCH NỢ TỰ ĐỘNG</text>
  </g>

  <!-- Right Steps -->
  <g transform="translate(420, 115)">
    <rect x="0" y="0" width="340" height="95" rx="16" fill="#142247" stroke="#253b75" />
    <text x="25" y="32" fill="#fbbf24" font-size="13" font-weight="800">THANH TOÁN 1-CHẠM QUA VIETQR</text>
    <text x="25" y="54" fill="#ffffff" font-size="12" font-weight="600">Quét mã bằng bất kỳ App ngân hàng nào.</text>
    <text x="25" y="72" fill="#94a3b8" font-size="11">Tự động điền chính xác Số tài khoản MB Bank,</text>
    <text x="25" y="88" fill="#94a3b8" font-size="11">Số tiền và Cú pháp định danh hội viên duy nhất.</text>

    <rect x="0" y="115" width="340" height="95" rx="16" fill="#142247" stroke="#253b75" />
    <text x="25" y="147" fill="#fbbf24" font-size="13" font-weight="800">TỰ ĐỘNG GẠCH NỢ &amp; GIA HẠN THẺ</text>
    <text x="25" y="169" fill="#ffffff" font-size="12" font-weight="600">Tiền về tài khoản CLB được ghi nhận sau 3 giây.</text>
    <text x="25" y="187" fill="#94a3b8" font-size="11">Thẻ hội viên số tự động cập nhật hạn dùng đến 2027.</text>
    <text x="25" y="203" fill="#94a3b8" font-size="11">Gửi thông báo xác nhận kèm hóa đơn vào Zalo/Tin nhắn.</text>

    <rect x="0" y="230" width="340" height="95" rx="16" fill="#142247" stroke="#253b75" />
    <text x="25" y="262" fill="#fbbf24" font-size="13" font-weight="800">XUẤT HÓA ĐƠN VAT ĐIỆN TỬ</text>
    <text x="25" y="284" fill="#ffffff" font-size="12" font-weight="600">Hỗ trợ xuất hóa đơn tài chính cho Doanh nghiệp.</text>
    <text x="25" y="302" fill="#94a3b8" font-size="11">Kê khai chi phí hợp lý hợp lệ cho công ty</text>
    <text x="25" y="318" fill="#94a3b8" font-size="11">theo quy định của Bộ Tài Chính và Luật Thuế.</text>
  </g>

</svg>