<svg xmlns="http://www.w3.org/2000/svg" viewBox="0 0 800 520" width="800" height="520" style="background:#0b1329;font-family:'Segoe UI',Roboto,Helvetica,Arial,sans-serif;">
  <defs>
    <linearGradient id="bgGrad" x1="0%" y1="0%" x2="100%" y2="100%">
      <stop offset="0%" stop-color="#0b1329" />
      <stop offset="50%" stop-color="#111d40" />
      <stop offset="100%" stop-color="#070c1b" />
    </linearGradient>
    <linearGradient id="goldGrad" x1="0%" y1="0%" x2="100%" y2="100%">
      <stop offset="0%" stop-color="#F59E0B" />
      <stop offset="50%" stop-color="#D97706" />
      <stop offset="100%" stop-color="#B45309" />
    </linearGradient>
    <linearGradient id="blueGrad" x1="0%" y1="0%" x2="100%" y2="100%">
      <stop offset="0%" stop-color="#0084FF" />
      <stop offset="100%" stop-color="#0066CC" />
    </linearGradient>
    <filter id="dropGlow" x="-20%" y="-20%" width="140%" height="140%">
      <feDropShadow dx="0" dy="8" stdDeviation="12" flood-color="#000000" flood-opacity="0.6"/>
    </filter>
  </defs>

  <rect width="800" height="520" fill="url(#bgGrad)" />
  
  <!-- Decorative Background Grid Lines -->
  <g opacity="0.08" stroke="#ffffff" stroke-width="1">
    <line x1="0" y1="80" x2="800" y2="80" />
    <line x1="0" y1="180" x2="800" y2="180" />
    <line x1="0" y1="280" x2="800" y2="280" />
    <line x1="0" y1="380" x2="800" y2="380" />
    <line x1="0" y1="480" x2="800" y2="480" />
    <line x1="160" y1="0" x2="160" y2="520" />
    <line x1="320" y1="0" x2="320" y2="520" />
    <line x1="480" y1="0" x2="480" y2="520" />
    <line x1="640" y1="0" x2="640" y2="520" />
  </g>

  <!-- Top Header Banner -->
  <rect x="40" y="24" width="720" height="60" rx="16" fill="#142247" stroke="#253b75" stroke-width="1.5" />
  <circle cx="75" cy="54" r="18" fill="url(#goldGrad)" />
  <text x="75" y="60" fill="#ffffff" font-size="14" font-weight="900" text-anchor="middle">CEO</text>
  <text x="108" y="46" fill="#fbbf24" font-size="15" font-weight="800" letter-spacing="0.5">HƯỚNG DẪN 3: NHẮN TIN GIAO THƯƠNG CHUẨN MESSENGER</text>
  <text x="108" y="66" fill="#94a3b8" font-size="12">Giao diện Messenger 100%, thu hồi tin nhắn tức thời, thả biểu tượng cảm xúc</text>

  <!-- Content Slot -->
  
  <g transform="translate(60, 105)">
    <!-- Messenger Chat Window Mockup -->
    <rect x="0" y="0" width="320" height="380" rx="24" fill="#ffffff" stroke="#334155" stroke-width="2" filter="url(#dropGlow)" />
    
    <!-- Chat Header -->
    <rect x="0" y="0" width="320" height="55" rx="24" fill="#ffffff" />
    <circle cx="35" cy="28" r="16" fill="#003B95" />
    <text x="35" y="33" fill="#ffffff" font-size="11" font-weight="800" text-anchor="middle">LHL</text>
    <circle cx="47" cy="38" r="4.5" fill="#22c55e" stroke="#ffffff" stroke-width="1.5" />
    <text x="60" y="25" fill="#0f172a" font-size="12" font-weight="800">Lê Hoàng Long</text>
    <text x="60" y="39" fill="#16a34a" font-size="9.5" font-weight="600">Đang hoạt động</text>

    <!-- Incoming Message from Peer -->
    <circle cx="25" cy="95" r="12" fill="#64748b" />
    <text x="25" y="99" fill="#ffffff" font-size="9" text-anchor="middle">HL</text>
    <rect x="44" y="78" width="190" height="36" rx="16" fill="#f1f5f9" />
    <text x="56" y="100" fill="#0f172a" font-size="11">Chào anh, rất vui được kết nối!</text>

    <!-- My Outgoing Message (Blue Messenger) -->
    <rect x="90" y="125" width="215" height="42" rx="16" fill="url(#blueGrad)" />
    <text x="104" y="145" fill="#ffffff" font-size="11">Mình đã gửi profile công ty nhé!</text>
    <text x="290" y="160" fill="#bfdbfe" font-size="8.5" text-anchor="end">14:20 ✓✓ Đã xem</text>

    <!-- Recalled Message (Messenger 100% standard) -->
    <rect x="110" y="180" width="195" height="34" rx="16" fill="none" stroke="#cbd5e1" stroke-width="1.2" />
    <text x="207" y="201" fill="#94a3b8" font-size="10.5" font-style="italic" text-anchor="middle">Bạn đã thu hồi một tin nhắn</text>

    <!-- Float Reaction Bar (👍 ❤️ 😂 😮 😢 😡) -->
    <rect x="120" y="222" width="165" height="32" rx="16" fill="#ffffff" stroke="#e2e8f0" filter="url(#dropGlow)" />
    <text x="135" y="243" font-size="14">👍</text>
    <text x="160" y="243" font-size="14">❤️</text>
    <text x="185" y="243" font-size="14">😂</text>
    <text x="210" y="243" font-size="14">😮</text>
    <text x="235" y="243" font-size="14">😢</text>
    <text x="260" y="243" font-size="14">😡</text>

    <!-- Another My Message with Heart Reaction -->
    <rect x="120" y="265" width="185" height="40" rx="16" fill="url(#blueGrad)" />
    <text x="134" y="285" fill="#ffffff" font-size="11">Hẹn gặp anh ở hội nghị 28/3.</text>
    <text x="290" y="299" fill="#bfdbfe" font-size="8.5" text-anchor="end">14:22 ✓</text>
    <!-- Reaction badge -->
    <rect x="280" y="295" width="24" height="18" rx="9" fill="#ffffff" stroke="#e2e8f0" />
    <text x="292" y="308" font-size="10" text-anchor="middle">❤️</text>

    <!-- Input Bar -->
    <line x1="0" y1="330" x2="320" y2="330" stroke="#f1f5f9" />
    <rect x="15" y="338" width="245" height="32" rx="16" fill="#f1f5f9" />
    <text x="30" y="358" fill="#94a3b8" font-size="10.5">Nhập tin nhắn giao thương...</text>
    <circle cx="290" cy="354" r="16" fill="#0084FF" />
    <path d="M 285 354 L 294 348 L 294 360 Z" fill="#ffffff" />
  </g>

  <!-- Right Steps -->
  <g transform="translate(420, 115)">
    <rect x="0" y="0" width="340" height="90" rx="16" fill="#142247" stroke="#253b75" />
    <text x="25" y="30" fill="#38bdf8" font-size="13" font-weight="800">BONG BÓNG CHUẨN MESSENGER</text>
    <text x="25" y="52" fill="#ffffff" font-size="11.5">Màu xanh Messenger (#0084FF) sang trọng, chữ trắng.</text>
    <text x="25" y="68" fill="#94a3b8" font-size="11">Tin nhắn đến màu xám mờ mềm mại có avatar bên cạnh.</text>

    <rect x="0" y="105" width="340" height="90" rx="16" fill="#142247" stroke="#253b75" />
    <text x="25" y="135" fill="#38bdf8" font-size="13" font-weight="800">TÍNH NĂNG THU HỒI TIN NHẮN</text>
    <text x="25" y="157" fill="#ffffff" font-size="11.5">Bấm dấu (...) bên cạnh tin nhắn và chọn 'Thu hồi'.</text>
    <text x="25" y="173" fill="#94a3b8" font-size="11">Chuyển sang trạng thái 'Bạn đã thu hồi một tin nhắn'.</text>

    <rect x="0" y="210" width="340" height="110" rx="16" fill="#142247" stroke="#253b75" />
    <text x="25" y="240" fill="#38bdf8" font-size="13" font-weight="800">THẢ CẢM XÚC &amp; GẮN KẾT B2B</text>
    <text x="25" y="262" fill="#ffffff" font-size="11.5">Hover hoặc chạm để thả 6 loại cảm xúc tức thời.</text>
    <text x="25" y="278" fill="#94a3b8" font-size="11">Hỗ trợ gửi hình ảnh, file PDF hợp đồng, thư mời họp</text>
    <text x="25" y="294" fill="#94a3b8" font-size="11">và hóa đơn VietQR tự động ngay trong khung chat.</text>
  </g>

</svg>