<svg xmlns="http://www.w3.org/2000/svg" viewBox="0 0 800 520" width="800" height="520" style="background:#0b1329;font-family:'Segoe UI',Roboto,Helvetica,Arial,sans-serif;">
  <defs>
    <linearGradient id="bgGrad" x1="0%" y1="0%" x2="100%" y2="100%">
      <stop offset="0%" stop-color="#0b1329" />
      <stop offset="50%" stop-color="#111d40" />
      <stop offset="100%" stop-color="#070c1b" />
    </linearGradient>
    <linearGradient id="goldGrad" x1="0%" y1="0%" x2="100%" y2="100%">
      <stop offset="0%" stop-color="#F59E0B" />
      <stop offset="50%" stop-color="#D97706" />
      <stop offset="100%" stop-color="#B45309" />
    </linearGradient>
    <linearGradient id="blueGrad" x1="0%" y1="0%" x2="100%" y2="100%">
      <stop offset="0%" stop-color="#0084FF" />
      <stop offset="100%" stop-color="#003B95" />
    </linearGradient>
    <filter id="dropGlow" x="-20%" y="-20%" width="140%" height="140%">
      <feDropShadow dx="0" dy="8" stdDeviation="12" flood-color="#000000" flood-opacity="0.6"/>
    </filter>
  </defs>

  <rect width="800" height="520" fill="url(#bgGrad)" />
  
  <g opacity="0.08" stroke="#ffffff" stroke-width="1">
    <line x1="0" y1="80" x2="800" y2="80" />
    <line x1="0" y1="180" x2="800" y2="180" />
    <line x1="0" y1="280" x2="800" y2="280" />
    <line x1="0" y1="380" x2="800" y2="380" />
    <line x1="0" y1="480" x2="800" y2="480" />
    <line x1="160" y1="0" x2="160" y2="520" />
    <line x1="320" y1="0" x2="320" y2="520" />
    <line x1="480" y1="0" x2="480" y2="520" />
    <line x1="640" y1="0" x2="640" y2="520" />
  </g>

  <!-- Top Header Banner -->
  <rect x="40" y="24" width="720" height="60" rx="16" fill="#142247" stroke="#253b75" stroke-width="1.5" />
  <circle cx="75" cy="54" r="18" fill="url(#goldGrad)" />
  <text x="75" y="60" fill="#ffffff" font-size="13" font-weight="900" text-anchor="middle">1983</text>
  <text x="108" y="46" fill="#fbbf24" font-size="15" font-weight="800" letter-spacing="0.5">HƯỚNG DẪN 5: BỘ LỌC TIN NHẮN & SẮP XẾP A-Z</text>
  <text x="108" y="66" fill="#94a3b8" font-size="12">Sắp xếp thời gian, dải phím chữ cái A-Z và trạng thái</text>
  <rect x="660" y="40" width="80" height="28" rx="8" fill="#F59E0B" />
  <text x="700" y="58" fill="#ffffff" font-size="11" font-weight="800" text-anchor="middle">FILTER A-Z</text>

  <!-- Main Content -->
  
  <g transform="translate(60, 105)">
    <rect x="0" y="0" width="280" height="380" rx="32" fill="#0f172a" stroke="#334155" stroke-width="4" filter="url(#dropGlow)" />
    <rect x="90" y="8" width="100" height="16" rx="8" fill="#1e293b" />
    <rect x="15" y="36" width="250" height="330" rx="20" fill="#ffffff" />
    <!-- Search bar with filter icon -->
    <rect x="25" y="50" width="195" height="36" rx="10" fill="#f1f5f9" />
    <text x="45" y="73" fill="#64748b" font-size="11">🔍 Tìm kiếm hội viên...</text>
    <rect x="226" y="50" width="36" height="36" rx="10" fill="#003B95" />
    <text x="244" y="73" fill="#ffffff" font-size="13" text-anchor="middle">⚙️</text>
    <!-- Filter Popover Simulation -->
    <rect x="25" y="96" width="237" height="255" rx="16" fill="#0f172a" stroke="#334155" stroke-width="1.5" filter="url(#dropGlow)" />
    <text x="40" y="122" fill="#fbbf24" font-size="11" font-weight="bold">SẮP XẾP CUỘC HỘI THOẠI</text>
    <rect x="38" y="132" width="210" height="24" rx="6" fill="#003B95" />
    <text x="48" y="148" fill="#ffffff" font-size="10" font-weight="bold">✓ Mới nhất (Mới cập nhật lên đầu)</text>
    <rect x="38" y="160" width="210" height="22" rx="6" fill="#1e293b" />
    <text x="48" y="175" fill="#94a3b8" font-size="10">Tên A → Z (Bảng chữ cái)</text>
    <!-- Alphabet Strip -->
    <text x="40" y="206" fill="#fbbf24" font-size="11" font-weight="bold">LỌC CHỮ CÁI (A - Z)</text>
    <g transform="translate(38, 216)">
      <rect x="0" y="0" width="24" height="24" rx="6" fill="#0084FF" />
      <text x="12" y="16" fill="#ffffff" font-size="10" font-weight="bold" text-anchor="middle">ALL</text>
      <rect x="30" y="0" width="22" height="24" rx="6" fill="#1e293b" />
      <text x="41" y="16" fill="#cbd5e1" font-size="10" text-anchor="middle">A</text>
      <rect x="58" y="0" width="22" height="24" rx="6" fill="#1e293b" />
      <text x="69" y="16" fill="#cbd5e1" font-size="10" text-anchor="middle">B</text>
      <rect x="86" y="0" width="22" height="24" rx="6" fill="#1e293b" />
      <text x="97" y="16" fill="#cbd5e1" font-size="10" text-anchor="middle">C</text>
      <rect x="114" y="0" width="22" height="24" rx="6" fill="#1e293b" />
      <text x="125" y="16" fill="#cbd5e1" font-size="10" text-anchor="middle">D</text>
      <rect x="142" y="0" width="22" height="24" rx="6" fill="#1e293b" />
      <text x="153" y="16" fill="#cbd5e1" font-size="10" text-anchor="middle">H</text>
      <rect x="170" y="0" width="22" height="24" rx="6" fill="#1e293b" />
      <text x="181" y="16" fill="#cbd5e1" font-size="10" text-anchor="middle">N</text>
    </g>
    <!-- Reset Button -->
    <rect x="38" y="306" width="210" height="28" rx="8" fill="#334155" />
    <text x="143" y="324" fill="#ffffff" font-size="10" font-weight="bold" text-anchor="middle">Đặt lại tất cả bộ lọc</text>
  </g>

  <g transform="translate(380, 115)">
    <rect x="0" y="0" width="380" height="110" rx="16" fill="#142247" stroke="#253b75" stroke-width="1.5" />
    <text x="24" y="36" fill="#fbbf24" font-size="15" font-weight="bold">1. Sắp Xếp Đa Chiều &amp; Thông Minh</text>
    <text x="24" y="62" fill="#cbd5e1" font-size="12">Tùy chọn sắp xếp linh hoạt theo thời gian cập nhật,</text>
    <text x="24" y="80" fill="#cbd5e1" font-size="12">theo tên hội viên A → Z hoặc theo số tin chưa đọc.</text>

    <rect x="0" y="130" width="380" height="110" rx="16" fill="#142247" stroke="#253b75" stroke-width="1.5" />
    <text x="24" y="166" fill="#38bdf8" font-size="15" font-weight="bold">2. Lọc Theo Chữ Cái Bắt Đầu (A - Z)</text>
    <text x="24" y="192" fill="#cbd5e1" font-size="12">Bấm chọn nhanh chữ cái đầu (ví dụ: N) để lọc ngay</text>
    <text x="24" y="210" fill="#cbd5e1" font-size="12">toàn bộ hội viên họ Nguyễn, Nam, Ninh trong 1 chạm.</text>

    <rect x="0" y="260" width="380" height="95" rx="16" fill="#142247" stroke="#253b75" stroke-width="1.5" />
    <text x="24" y="296" fill="#4ade80" font-size="15" font-weight="bold">3. Lọc Trực Tuyến &amp; Tệp Đính Kèm</text>
    <text x="24" y="322" fill="#cbd5e1" font-size="12">Nhanh chóng tra cứu ai đang Online hoặc gửi file hợp đồng.</text>
  </g>

</svg>